<svg width="48" height="43" viewBox="0 0 48 43" fill="none" xmlns="http://www.w3.org/2000/svg">
<path d="M8 37.3333V40C8 40.7556 7.74444 41.3889 7.23333 41.9C6.72222 42.4111 6.08889 42.6667 5.33333 42.6667H2.66667C1.91111 42.6667 1.27778 42.4111 0.766667 41.9C0.255556 41.3889 0 40.7556 0 40V18.6667L5.6 2.66667C5.86667 1.86667 6.34444 1.22222 7.03333 0.733333C7.72222 0.244444 8.48889 0 9.33333 0H38.6667C39.5111 0 40.2778 0.244444 40.9667 0.733333C41.6556 1.22222 42.1333 1.86667 42.4 2.66667L48 18.6667V40C48 40.7556 47.7444 41.3889 47.2333 41.9C46.7222 42.4111 46.0889 42.6667 45.3333 42.6667H42.6667C41.9111 42.6667 41.2778 42.4111 40.7667 41.9C40.2556 41.3889 40 40.7556 40 40V37.3333H8ZM7.46667 13.3333H40.5333L37.7333 5.33333H10.2667L7.46667 13.3333ZM5.33333 18.6667V32V18.6667ZM12 29.3333C13.1111 29.3333 14.0556 28.9444 14.8333 28.1667C15.6111 27.3889 16 26.4444 16 25.3333C16 24.2222 15.6111 23.2778 14.8333 22.5C14.0556 21.7222 13.1111 21.3333 12 21.3333C10.8889 21.3333 9.94444 21.7222 9.16667 22.5C8.38889 23.2778 8 24.2222 8 25.3333C8 26.4444 8.38889 27.3889 9.16667 28.1667C9.94444 28.9444 10.8889 29.3333 12 29.3333ZM36 29.3333C37.1111 29.3333 38.0556 28.9444 38.8333 28.1667C39.6111 27.3889 40 26.4444 40 25.3333C40 24.2222 39.6111 23.2778 38.8333 22.5C38.0556 21.7222 37.1111 21.3333 36 21.3333C34.8889 21.3333 33.9444 21.7222 33.1667 22.5C32.3889 23.2778 32 24.2222 32 25.3333C32 26.4444 32.3889 27.3889 33.1667 28.1667C33.9444 28.9444 34.8889 29.3333 36 29.3333ZM5.33333 32H42.6667V18.6667H5.33333V32Z" fill="#0D631B"/>
</svg>
