<svg width="80" height="88" viewBox="0 0 80 88" fill="none" xmlns="http://www.w3.org/2000/svg">
<rect width="80" height="88" rx="40" fill="#0D631B" fill-opacity="0.1"/>
<path d="M37.9 51.1L49.2 39.8L46.35 36.95L37.9 45.4L33.7 41.2L30.85 44.05L37.9 51.1V51.1M40 64C35.3667 62.8333 31.5417 60.175 28.525 56.025C25.5083 51.875 24 47.2667 24 42.2V30L40 24L56 30V42.2C56 47.2667 54.4917 51.875 51.475 56.025C48.4583 60.175 44.6333 62.8333 40 64V64M40 59.8C43.4667 58.7 46.3333 56.5 48.6 53.2C50.8667 49.9 52 46.2333 52 42.2V32.75L40 28.25L28 32.75V42.2C28 46.2333 29.1333 49.9 31.4 53.2C33.6667 56.5 36.5333 58.7 40 59.8V59.8M40 44V44V44V44V44V44V44V44V44V44" fill="#0D631B"/>
</svg>
